<svg xmlns="http://www.w3.org/2000/svg" xmlns:xlink="http://www.w3.org/1999/xlink" width="500" zoomAndPan="magnify" viewBox="0 0 375 374.999991" height="500" preserveAspectRatio="xMidYMid meet" version="1.0"><defs><clipPath id="b019be3de0"><path d="M 61.578125 80.589844 L 302.328125 80.589844 L 302.328125 304.839844 L 61.578125 304.839844 Z M 61.578125 80.589844 " clip-rule="nonzero"/></clipPath><clipPath id="f73be0ac69"><path d="M 1 1 L 241 1 L 241 224.839844 L 1 224.839844 Z M 1 1 " clip-rule="nonzero"/></clipPath><clipPath id="04dd805269"><path d="M 0.578125 0.589844 L 241 0.589844 L 241 224.839844 L 0.578125 224.839844 Z M 0.578125 0.589844 " clip-rule="nonzero"/></clipPath><clipPath id="78a819798f"><rect x="0" width="242" y="0" height="225"/></clipPath></defs><g clip-path="url(#b019be3de0)"><g transform="matrix(1, 0, 0, 1, 61, 80)"><g clip-path="url(#78a819798f)"><g clip-path="url(#f73be0ac69)"><path fill="#ffffff" d="M 17.257812 98.261719 L 17.082031 82.398438 L 32.984375 82.230469 L 32.808594 66.390625 L 48.6875 66.203125 L 64.589844 66.027344 L 80.46875 65.851562 L 80.292969 50.007812 L 80.117188 34.144531 L 95.996094 33.972656 L 96.171875 49.832031 L 96.347656 65.667969 L 96.402344 70.425781 L 96.347656 65.667969 L 96.171875 49.828125 L 95.996094 33.96875 L 99.453125 33.925781 L 95.996094 33.96875 L 95.839844 18.117188 L 111.742188 17.9375 L 115.199219 17.902344 L 111.742188 17.9375 L 111.542969 2.085938 L 127.421875 1.910156 L 143.324219 1.734375 L 143.496094 17.484375 L 146.953125 17.449219 L 146.953125 17.582031 L 159.378906 17.449219 L 159.550781 33.183594 L 163.007812 33.144531 L 163.007812 33.253906 L 175.453125 33.074219 L 175.613281 48.839844 L 179.070312 48.800781 L 179.070312 48.914062 L 191.480469 48.773438 L 191.65625 64.507812 L 195.113281 64.472656 L 195.113281 64.578125 L 207.542969 64.441406 L 207.714844 80.175781 L 211.171875 80.136719 L 211.171875 80.25 L 223.625 80.09375 L 223.800781 95.847656 L 227.253906 95.808594 L 227.253906 95.914062 L 239.695312 95.796875 L 239.875 111.617188 L 240.050781 127.503906 L 224.152344 127.675781 L 224.332031 143.523438 L 208.445312 143.699219 L 208.621094 159.542969 L 192.742188 159.71875 L 192.917969 175.574219 L 177.015625 175.75 L 177.195312 191.597656 L 161.3125 191.777344 L 161.492188 207.617188 L 145.609375 207.792969 L 145.78125 223.652344 L 129.886719 223.828125 L 114.007812 224.003906 L 113.832031 208.148438 L 97.929688 208.316406 L 97.757812 192.476562 L 81.875 192.652344 L 81.695312 176.804688 L 81.519531 160.945312 L 65.640625 161.121094 L 49.746094 161.300781 L 33.859375 161.476562 L 33.683594 145.628906 L 17.789062 145.804688 L 17.613281 129.960938 L 1.734375 130.132812 L 1.554688 114.273438 L 1.378906 98.425781 Z M 191.859375 80.464844 L 191.917969 85.746094 Z M 207.917969 96.125 L 211.375 96.125 L 207.917969 96.160156 Z M 143.671875 33.4375 L 143.789062 44.011719 Z M 143.671875 33.4375 " fill-opacity="1" fill-rule="nonzero"/></g><path fill="#ffffff" d="M 208.097656 111.695312 L 207.921875 95.792969 L 192.019531 95.964844 L 192.191406 111.871094 Z M 208.097656 111.695312 " fill-opacity="1" fill-rule="nonzero"/><path fill="#ffffff" d="M 192.019531 95.972656 L 191.84375 80.050781 L 175.921875 80.226562 L 176.097656 96.148438 Z M 192.019531 95.972656 " fill-opacity="1" fill-rule="nonzero"/><path fill="#ffffff" d="M 175.917969 80.222656 L 175.746094 64.320312 L 159.839844 64.492188 L 160.015625 80.398438 Z M 175.917969 80.222656 " fill-opacity="1" fill-rule="nonzero"/><path fill="#ffffff" d="M 143.757812 48.765625 L 143.582031 32.84375 L 127.660156 33.019531 L 127.835938 48.941406 Z M 143.757812 48.765625 " fill-opacity="1" fill-rule="nonzero"/><path fill="#ffffff" d="M 32.882812 97.738281 L 32.707031 81.816406 L 48.613281 81.640625 L 48.789062 97.5625 L 64.710938 97.386719 L 64.886719 113.292969 L 80.792969 113.113281 L 80.96875 129.039062 L 96.875 128.867188 L 112.800781 128.691406 L 128.707031 128.515625 L 129.058594 160.328125 L 129.234375 176.25 L 145.164062 176.074219 L 144.980469 160.148438 L 160.890625 159.972656 L 176.796875 159.796875 L 176.976562 175.71875 L 161.070312 175.894531 L 161.246094 191.800781 L 145.332031 191.980469 L 145.515625 207.886719 L 129.585938 208.0625 L 113.679688 208.238281 L 113.503906 192.332031 L 97.582031 192.507812 L 97.40625 176.601562 L 97.230469 160.679688 L 97.054688 144.773438 L 65.242188 145.125 L 49.316406 145.300781 L 33.410156 145.476562 L 33.234375 129.566406 L 17.3125 129.75 L 17.136719 113.820312 L 16.960938 97.914062 Z M 32.882812 97.738281 " fill-opacity="1" fill-rule="nonzero"/><g clip-path="url(#04dd805269)"><path fill="#3d3b52" d="M 16.71875 97.816406 L 16.542969 81.867188 L 32.503906 81.699219 L 32.328125 65.757812 L 48.527344 65.582031 L 64.488281 65.40625 L 80.160156 65.230469 L 79.980469 49.566406 L 79.8125 33.34375 L 95.75 33.167969 L 95.574219 17.234375 L 111.523438 17.046875 L 111.335938 1.109375 L 127.550781 0.925781 L 143.773438 0.746094 L 143.929688 16.699219 L 159.886719 16.511719 L 160.0625 32.445312 L 175.984375 32.28125 L 176.164062 48.230469 L 192.132812 48.035156 L 192.308594 63.96875 L 208.246094 63.792969 L 208.425781 79.726562 L 224.363281 79.5625 L 224.539062 95.507812 L 240.492188 95.332031 L 240.675781 111.535156 L 240.855469 127.75 L 224.898438 127.925781 L 225.078125 143.863281 L 209.132812 144.039062 L 209.3125 159.972656 L 193.371094 160.148438 L 193.554688 176.097656 L 177.589844 176.269531 L 177.765625 192.203125 L 161.828125 192.378906 L 162.007812 208.328125 L 146.070312 208.503906 L 146.246094 224.453125 L 130.023438 224.636719 L 113.820312 224.816406 L 113.644531 208.863281 L 97.6875 209.042969 L 97.511719 193.105469 L 81.574219 193.28125 L 81.394531 177.082031 L 81.222656 161.402344 L 65.550781 161.578125 L 49.597656 161.753906 L 33.390625 161.929688 L 33.214844 145.996094 L 17.257812 146.171875 L 17.082031 130.238281 L 1.144531 130.414062 L 0.964844 114.199219 L 0.78125 98 Z M 17.4375 114.011719 L 17.613281 129.695312 L 33.566406 129.519531 L 33.742188 145.453125 L 49.414062 145.28125 L 65.382812 145.097656 L 81.324219 144.921875 L 97.511719 144.746094 L 97.6875 160.945312 L 97.871094 176.894531 L 98.042969 192.5625 L 114.007812 192.386719 L 114.171875 208.328125 L 129.84375 208.15625 L 145.53125 207.96875 L 145.355469 192.039062 L 161.292969 191.859375 L 161.117188 175.929688 L 177.054688 175.734375 L 176.878906 159.785156 L 192.832031 159.609375 L 192.65625 143.675781 L 208.578125 143.515625 L 208.402344 127.585938 L 224.339844 127.40625 L 224.171875 111.71875 L 223.992188 96.054688 L 208.042969 96.230469 L 207.867188 80.28125 L 191.929688 80.457031 L 191.753906 64.523438 L 175.800781 64.703125 L 175.621094 48.769531 L 159.683594 48.945312 L 159.507812 32.996094 L 143.570312 33.171875 L 143.394531 17.238281 L 127.707031 17.410156 L 112.035156 17.585938 L 112.210938 33.519531 L 96.257812 33.695312 L 96.429688 49.378906 L 96.605469 65.3125 L 96.785156 81.511719 L 80.582031 81.691406 L 64.640625 81.867188 L 48.6875 82.046875 L 33.015625 82.214844 L 33.191406 98.171875 L 17.238281 98.347656 Z M 17.4375 114.011719 " fill-opacity="1" fill-rule="nonzero"/><path fill="#3d3b52" d="M 16.71875 97.816406 L 16.59375 97.816406 L 16.410156 81.734375 L 32.363281 81.558594 L 32.1875 65.625 L 48.527344 65.445312 L 64.480469 65.269531 L 80.019531 65.097656 L 79.847656 49.566406 L 79.667969 33.210938 L 95.605469 33.035156 L 95.429688 17.101562 L 111.382812 16.925781 L 111.207031 0.976562 L 127.546875 0.792969 L 143.902344 0.613281 L 144.082031 16.5625 L 160.019531 16.382812 L 160.199219 32.316406 L 176.136719 32.140625 L 176.3125 48.09375 L 192.265625 47.917969 L 192.441406 63.851562 L 208.382812 63.675781 L 208.578125 79.609375 L 224.515625 79.433594 L 224.695312 95.382812 L 240.636719 95.207031 L 240.820312 111.539062 L 241 127.890625 L 225.046875 128.066406 L 225.222656 144 L 209.285156 144.175781 L 209.460938 160.109375 L 193.523438 160.285156 L 193.699219 176.238281 L 177.746094 176.414062 L 177.921875 192.347656 L 161.980469 192.523438 L 162.160156 208.457031 L 146.21875 208.632812 L 146.394531 224.582031 L 130.042969 224.765625 L 113.703125 224.945312 L 113.527344 208.996094 L 97.570312 209.171875 L 97.390625 193.238281 L 81.453125 193.417969 L 81.273438 177.082031 L 81.097656 161.527344 L 65.5625 161.703125 L 49.605469 161.882812 L 33.269531 162.0625 L 33.089844 146.125 L 17.136719 146.300781 L 16.960938 130.367188 L 1.023438 130.542969 L 0.839844 114.195312 L 0.660156 97.859375 L 16.730469 97.683594 L 16.730469 97.953125 L 0.925781 98.121094 L 1.101562 114.195312 L 1.277344 130.277344 L 17.21875 130.101562 L 17.394531 146.035156 L 33.328125 145.859375 L 33.503906 161.789062 L 49.574219 161.613281 L 65.527344 161.4375 L 81.332031 161.261719 L 81.503906 177.078125 L 81.6875 193.144531 L 97.625 192.96875 L 97.800781 208.898438 L 113.753906 208.722656 L 113.933594 224.671875 L 130.035156 224.496094 L 146.125 224.320312 L 145.949219 208.367188 L 161.886719 208.191406 L 161.710938 192.257812 L 177.648438 192.082031 L 177.472656 176.148438 L 193.425781 175.972656 L 193.25 160.023438 L 209.1875 159.84375 L 209.011719 143.914062 L 224.949219 143.734375 L 224.773438 127.804688 L 240.71875 127.648438 L 240.542969 111.566406 L 240.363281 95.492188 L 224.410156 95.671875 L 224.234375 79.722656 L 208.296875 79.898438 L 208.113281 63.964844 L 192.175781 64.140625 L 192.015625 48.1875 L 176.0625 48.363281 L 175.882812 32.414062 L 159.945312 32.589844 L 159.769531 16.65625 L 143.832031 16.832031 L 143.65625 0.882812 L 127.566406 1.058594 L 111.496094 1.238281 L 111.671875 17.191406 L 95.71875 17.367188 L 95.894531 33.300781 L 79.957031 33.476562 L 80.132812 49.558594 L 80.308594 65.359375 L 64.503906 65.535156 L 48.546875 65.710938 L 32.476562 65.886719 L 32.652344 81.820312 L 16.699219 81.996094 L 16.875 97.945312 L 16.742188 97.945312 Z M 17.4375 114.011719 L 17.570312 114.011719 L 17.742188 129.566406 L 33.695312 129.390625 L 33.859375 145.316406 L 49.398438 145.140625 L 65.382812 144.964844 L 81.324219 144.789062 L 97.664062 144.613281 L 97.839844 160.945312 L 97.976562 176.894531 L 98.148438 192.425781 L 114.101562 192.25 L 114.277344 208.183594 L 129.816406 208.011719 L 145.371094 207.84375 L 145.195312 191.910156 L 161.132812 191.734375 L 160.957031 175.792969 L 176.894531 175.617188 L 176.71875 159.667969 L 192.671875 159.492188 L 192.496094 143.558594 L 208.433594 143.382812 L 208.257812 127.449219 L 224.195312 127.273438 L 224.074219 111.726562 L 223.902344 96.1875 L 207.964844 96.371094 L 207.789062 80.414062 L 191.84375 80.597656 L 191.667969 64.660156 L 175.714844 64.835938 L 175.539062 48.902344 L 159.597656 49.078125 L 159.421875 33.128906 L 143.484375 33.304688 L 143.308594 17.371094 L 127.753906 17.542969 L 112.214844 17.714844 L 112.394531 33.648438 L 96.4375 33.828125 L 96.609375 49.378906 L 96.785156 65.3125 L 96.96875 81.644531 L 80.628906 81.824219 L 64.691406 82.003906 L 48.734375 82.179688 L 33.199219 82.351562 L 33.328125 98.296875 L 17.371094 98.476562 L 17.542969 114.007812 L 17.277344 114.007812 L 17.097656 98.207031 L 33.054688 98.03125 L 32.878906 82.082031 L 48.683594 81.90625 L 64.636719 81.730469 L 80.574219 81.554688 L 96.652344 81.371094 L 96.472656 65.304688 L 96.292969 49.371094 L 96.117188 33.558594 L 112.078125 33.378906 L 111.902344 17.449219 L 127.699219 17.269531 L 143.554688 17.101562 L 143.730469 33.039062 L 159.667969 32.863281 L 159.84375 48.8125 L 175.785156 48.636719 L 175.960938 64.566406 L 191.914062 64.390625 L 192.089844 80.324219 L 208.042969 80.148438 L 208.203125 96.125 L 224.144531 95.949219 L 224.320312 111.746094 L 224.496094 127.5625 L 208.558594 127.738281 L 208.734375 143.671875 L 192.796875 143.855469 L 192.972656 159.785156 L 177.015625 159.964844 L 177.195312 175.914062 L 161.253906 176.089844 L 161.433594 192.023438 L 145.492188 192.199219 L 145.667969 208.132812 L 129.84375 208.308594 L 114.039062 208.484375 L 113.863281 192.550781 L 97.90625 192.722656 L 97.738281 176.921875 L 97.5625 160.972656 L 97.378906 144.90625 L 81.308594 145.082031 L 65.367188 145.257812 L 49.414062 145.433594 L 33.609375 145.613281 L 33.433594 129.679688 L 17.480469 129.855469 L 17.300781 114.039062 Z M 17.4375 114.011719 " fill-opacity="1" fill-rule="nonzero"/></g></g></g></g></svg>