<svg xmlns="http://www.w3.org/2000/svg" xmlns:xlink="http://www.w3.org/1999/xlink" width="500" zoomAndPan="magnify" viewBox="0 0 375 374.999991" height="500" preserveAspectRatio="xMidYMid meet" version="1.0"><defs><clipPath id="d22926d237"><path d="M 80.628906 87.820312 L 294.378906 87.820312 L 294.378906 287.320312 L 80.628906 287.320312 Z M 80.628906 87.820312 " clip-rule="nonzero"/></clipPath></defs><path fill="#ffffff" d="M 279.542969 174.609375 L 279.699219 160.511719 L 265.570312 160.367188 L 265.726562 146.289062 L 251.617188 146.121094 L 237.488281 145.964844 L 223.378906 145.808594 L 223.535156 131.730469 L 223.691406 117.636719 L 209.582031 117.484375 L 209.425781 131.574219 L 209.269531 145.648438 L 209.21875 149.871094 L 209.269531 145.648438 L 209.425781 131.570312 L 209.582031 117.480469 L 206.507812 117.441406 L 209.582031 117.480469 L 209.71875 103.390625 L 195.589844 103.234375 L 192.515625 103.203125 L 195.589844 103.234375 L 195.765625 89.148438 L 181.65625 88.992188 L 167.523438 88.835938 L 167.375 102.832031 L 164.300781 102.796875 L 164.300781 102.917969 L 153.257812 102.796875 L 153.105469 116.78125 L 150.035156 116.746094 L 150.035156 116.84375 L 138.976562 116.6875 L 138.835938 130.691406 L 135.761719 130.660156 L 135.761719 130.757812 L 124.734375 130.636719 L 124.578125 144.617188 L 121.503906 144.582031 L 121.503906 144.679688 L 110.460938 144.554688 L 110.308594 158.539062 L 107.238281 158.503906 L 107.238281 158.605469 L 96.171875 158.464844 L 96.015625 172.460938 L 92.945312 172.429688 L 92.945312 172.523438 L 81.890625 172.421875 L 81.734375 186.476562 L 81.574219 200.59375 L 95.699219 200.746094 L 95.542969 214.828125 L 109.660156 214.984375 L 109.503906 229.0625 L 123.613281 229.21875 L 123.457031 243.308594 L 137.585938 243.464844 L 137.429688 257.546875 L 151.539062 257.703125 L 151.382812 271.78125 L 165.492188 271.9375 L 165.339844 286.03125 L 179.464844 286.1875 L 193.578125 286.34375 L 193.734375 272.25 L 207.863281 272.402344 L 208.015625 258.328125 L 222.128906 258.484375 L 222.285156 244.402344 L 222.441406 230.308594 L 236.554688 230.464844 L 250.679688 230.625 L 264.792969 230.78125 L 264.949219 216.699219 L 279.074219 216.855469 L 279.230469 202.777344 L 293.339844 202.929688 L 293.496094 188.835938 L 293.65625 174.757812 Z M 124.394531 158.792969 L 124.34375 163.488281 Z M 110.128906 172.710938 L 107.058594 172.710938 L 110.128906 172.742188 Z M 167.214844 117.007812 L 167.113281 126.40625 Z M 167.214844 117.007812 " fill-opacity="1" fill-rule="nonzero"/><path fill="#ffffff" d="M 109.96875 186.546875 L 110.121094 172.414062 L 124.257812 172.570312 L 124.101562 186.703125 Z M 109.96875 186.546875 " fill-opacity="1" fill-rule="nonzero"/><path fill="#ffffff" d="M 124.253906 172.574219 L 124.410156 158.425781 L 138.558594 158.582031 L 138.402344 172.730469 Z M 124.253906 172.574219 " fill-opacity="1" fill-rule="nonzero"/><path fill="#ffffff" d="M 138.5625 158.582031 L 138.71875 144.449219 L 152.851562 144.601562 L 152.695312 158.738281 Z M 138.5625 158.582031 " fill-opacity="1" fill-rule="nonzero"/><path fill="#ffffff" d="M 167.140625 130.628906 L 167.296875 116.480469 L 181.445312 116.636719 L 181.289062 130.785156 Z M 167.140625 130.628906 " fill-opacity="1" fill-rule="nonzero"/><path fill="#ffffff" d="M 265.660156 174.144531 L 265.820312 159.996094 L 251.683594 159.839844 L 251.527344 173.988281 L 237.378906 173.832031 L 237.222656 187.964844 L 223.089844 187.808594 L 222.933594 201.957031 L 208.796875 201.804688 L 194.648438 201.648438 L 180.515625 201.492188 L 180.203125 229.757812 L 180.046875 243.90625 L 165.890625 243.75 L 166.054688 229.601562 L 151.914062 229.445312 L 137.78125 229.289062 L 137.625 243.4375 L 151.757812 243.59375 L 151.601562 257.726562 L 165.738281 257.886719 L 165.578125 272.019531 L 179.730469 272.175781 L 193.867188 272.332031 L 194.023438 258.199219 L 208.171875 258.355469 L 208.328125 244.222656 L 208.484375 230.074219 L 208.640625 215.9375 L 222.773438 216.09375 L 236.910156 216.25 L 251.058594 216.410156 L 265.191406 216.566406 L 265.347656 202.425781 L 279.496094 202.585938 L 279.652344 188.433594 L 279.808594 174.300781 Z M 265.660156 174.144531 " fill-opacity="1" fill-rule="nonzero"/><g clip-path="url(#d22926d237)"><path fill="#3d3b52" d="M 280.023438 174.214844 L 280.179688 160.042969 L 266 159.890625 L 266.15625 145.726562 L 251.761719 145.570312 L 237.578125 145.414062 L 223.652344 145.257812 L 223.808594 131.335938 L 223.960938 116.921875 L 209.800781 116.765625 L 209.957031 102.609375 L 195.785156 102.441406 L 195.949219 88.28125 L 181.539062 88.117188 L 167.125 87.957031 L 166.988281 102.132812 L 152.808594 101.96875 L 152.648438 116.125 L 138.5 115.976562 L 138.34375 130.152344 L 124.152344 129.980469 L 123.996094 144.136719 L 109.835938 143.980469 L 109.679688 158.140625 L 95.515625 157.992188 L 95.359375 172.164062 L 81.183594 172.007812 L 81.019531 186.402344 L 80.859375 200.8125 L 95.039062 200.96875 L 94.878906 215.132812 L 109.046875 215.289062 L 108.890625 229.445312 L 123.050781 229.601562 L 122.890625 243.773438 L 137.078125 243.925781 L 136.921875 258.085938 L 151.082031 258.242188 L 150.921875 272.414062 L 165.085938 272.570312 L 164.929688 286.742188 L 179.34375 286.902344 L 193.742188 287.066406 L 193.898438 272.886719 L 208.074219 273.050781 L 208.234375 258.886719 L 222.394531 259.042969 L 222.558594 244.648438 L 222.707031 230.714844 L 236.632812 230.871094 L 250.8125 231.027344 L 265.210938 231.183594 L 265.367188 217.027344 L 279.542969 217.183594 L 279.699219 203.023438 L 293.863281 203.179688 L 294.023438 188.769531 L 294.1875 174.375 Z M 279.386719 188.605469 L 279.230469 202.539062 L 265.054688 202.382812 L 264.898438 216.542969 L 250.972656 216.390625 L 236.78125 216.226562 L 222.617188 216.070312 L 208.234375 215.914062 L 208.074219 230.308594 L 207.914062 244.480469 L 207.761719 258.402344 L 193.578125 258.246094 L 193.429688 272.414062 L 179.503906 272.261719 L 165.5625 272.09375 L 165.722656 257.9375 L 151.558594 257.78125 L 151.714844 243.621094 L 137.550781 243.453125 L 137.710938 229.28125 L 123.53125 229.121094 L 123.6875 214.964844 L 109.539062 214.824219 L 109.695312 200.664062 L 95.535156 200.507812 L 95.6875 186.570312 L 95.84375 172.648438 L 110.015625 172.804688 L 110.171875 158.632812 L 124.335938 158.789062 L 124.492188 144.632812 L 138.667969 144.789062 L 138.824219 130.628906 L 152.988281 130.785156 L 153.144531 116.613281 L 167.308594 116.769531 L 167.464844 102.613281 L 181.402344 102.765625 L 195.328125 102.921875 L 195.171875 117.078125 L 209.347656 117.238281 L 209.195312 131.171875 L 209.039062 145.328125 L 208.878906 159.722656 L 223.277344 159.886719 L 237.441406 160.042969 L 251.617188 160.199219 L 265.542969 160.351562 L 265.386719 174.527344 L 279.5625 174.683594 Z M 279.386719 188.605469 " fill-opacity="1" fill-rule="nonzero"/><path fill="#3d3b52" d="M 280.023438 174.214844 L 280.136719 174.214844 L 280.300781 159.925781 L 266.121094 159.765625 L 266.277344 145.609375 L 251.761719 145.449219 L 237.582031 145.292969 L 223.777344 145.140625 L 223.929688 131.335938 L 224.089844 116.804688 L 209.925781 116.648438 L 210.085938 102.488281 L 195.90625 102.332031 L 196.0625 88.160156 L 181.546875 88 L 167.011719 87.839844 L 166.851562 102.011719 L 152.6875 101.855469 L 152.53125 116.011719 L 138.367188 115.855469 L 138.210938 130.03125 L 124.035156 129.875 L 123.878906 144.03125 L 109.714844 143.875 L 109.539062 158.035156 L 95.378906 157.878906 L 95.222656 172.050781 L 81.054688 171.894531 L 80.890625 186.40625 L 80.730469 200.933594 L 94.90625 201.09375 L 94.75 215.25 L 108.914062 215.40625 L 108.757812 229.5625 L 122.917969 229.722656 L 122.761719 243.898438 L 136.941406 244.054688 L 136.785156 258.210938 L 150.945312 258.371094 L 150.789062 272.527344 L 164.953125 272.683594 L 164.796875 286.855469 L 179.328125 287.015625 L 193.847656 287.179688 L 194.003906 273.007812 L 208.179688 273.164062 L 208.34375 259.003906 L 222.503906 259.160156 L 222.660156 244.648438 L 222.816406 230.828125 L 236.625 230.984375 L 250.800781 231.140625 L 265.320312 231.300781 L 265.476562 217.140625 L 279.652344 217.296875 L 279.808594 203.136719 L 293.972656 203.292969 L 294.132812 188.765625 L 294.296875 174.253906 L 280.015625 174.097656 L 280.015625 174.332031 L 294.058594 174.484375 L 293.902344 188.765625 L 293.746094 203.058594 L 279.582031 202.902344 L 279.425781 217.058594 L 265.269531 216.902344 L 265.109375 231.058594 L 250.828125 230.902344 L 236.652344 230.746094 L 222.609375 230.589844 L 222.457031 244.644531 L 222.296875 258.921875 L 208.132812 258.761719 L 207.976562 272.921875 L 193.800781 272.765625 L 193.644531 286.9375 L 179.332031 286.78125 L 165.039062 286.625 L 165.195312 272.445312 L 151.03125 272.289062 L 151.1875 258.132812 L 137.023438 257.976562 L 137.183594 243.816406 L 123.003906 243.660156 L 123.160156 229.488281 L 109 229.332031 L 109.15625 215.175781 L 94.992188 215.015625 L 95.148438 200.859375 L 80.984375 200.722656 L 81.140625 186.429688 L 81.296875 172.148438 L 95.472656 172.304688 L 95.628906 158.132812 L 109.792969 158.289062 L 109.953125 144.132812 L 124.117188 144.289062 L 124.257812 130.113281 L 138.433594 130.269531 L 138.59375 116.097656 L 152.753906 116.253906 L 152.910156 102.097656 L 167.074219 102.253906 L 167.230469 88.082031 L 181.527344 88.238281 L 195.808594 88.394531 L 195.652344 102.570312 L 209.828125 102.726562 L 209.671875 116.886719 L 223.832031 117.042969 L 223.675781 131.332031 L 223.519531 145.371094 L 237.5625 145.527344 L 251.742188 145.683594 L 266.023438 145.84375 L 265.867188 160 L 280.042969 160.15625 L 279.886719 174.328125 L 280.003906 174.328125 Z M 279.386719 188.605469 L 279.269531 188.605469 L 279.117188 202.425781 L 264.941406 202.269531 L 264.792969 216.421875 L 250.988281 216.265625 L 236.78125 216.109375 L 222.617188 215.953125 L 208.101562 215.796875 L 207.941406 230.308594 L 207.820312 244.480469 L 207.667969 258.285156 L 193.492188 258.128906 L 193.335938 272.285156 L 179.527344 272.132812 L 165.707031 271.980469 L 165.863281 257.824219 L 151.699219 257.667969 L 151.859375 243.503906 L 137.695312 243.347656 L 137.851562 229.175781 L 123.675781 229.019531 L 123.832031 214.859375 L 109.667969 214.703125 L 109.824219 200.546875 L 95.664062 200.390625 L 95.773438 186.574219 L 95.925781 172.765625 L 110.085938 172.929688 L 110.242188 158.75 L 124.410156 158.914062 L 124.566406 144.75 L 138.742188 144.90625 L 138.902344 130.75 L 153.0625 130.90625 L 153.21875 116.734375 L 167.382812 116.890625 L 167.539062 102.730469 L 181.359375 102.882812 L 195.167969 103.035156 L 195.011719 117.195312 L 209.1875 117.355469 L 209.035156 131.171875 L 208.878906 145.328125 L 208.71875 159.84375 L 223.234375 160.003906 L 237.398438 160.160156 L 251.574219 160.316406 L 265.382812 160.46875 L 265.269531 174.640625 L 279.445312 174.796875 L 279.292969 188.601562 L 279.53125 188.601562 L 279.6875 174.5625 L 265.511719 174.40625 L 265.667969 160.234375 L 251.621094 160.074219 L 237.445312 159.917969 L 223.28125 159.761719 L 208.996094 159.601562 L 209.160156 145.324219 L 209.316406 131.167969 L 209.472656 117.113281 L 195.289062 116.957031 L 195.445312 102.796875 L 181.40625 102.640625 L 167.320312 102.488281 L 167.164062 116.652344 L 153 116.496094 L 152.84375 130.667969 L 138.683594 130.511719 L 138.527344 144.667969 L 124.347656 144.511719 L 124.191406 158.671875 L 110.015625 158.515625 L 109.871094 172.710938 L 95.710938 172.554688 L 95.554688 186.59375 L 95.398438 200.644531 L 109.558594 200.800781 L 109.402344 214.960938 L 123.566406 215.121094 L 123.410156 229.28125 L 137.585938 229.4375 L 137.429688 243.609375 L 151.589844 243.765625 L 151.433594 257.921875 L 165.597656 258.078125 L 165.441406 272.238281 L 179.503906 272.394531 L 193.546875 272.550781 L 193.703125 258.394531 L 207.882812 258.542969 L 208.035156 244.503906 L 208.191406 230.332031 L 208.351562 216.058594 L 222.632812 216.214844 L 236.796875 216.371094 L 250.972656 216.527344 L 265.015625 216.683594 L 265.171875 202.527344 L 279.347656 202.683594 L 279.507812 188.628906 Z M 279.386719 188.605469 " fill-opacity="1" fill-rule="nonzero"/></g></svg>