<svg xmlns="http://www.w3.org/2000/svg" xmlns:xlink="http://www.w3.org/1999/xlink" width="500" zoomAndPan="magnify" viewBox="0 0 375 374.999991" height="500" preserveAspectRatio="xMidYMid meet" version="1.0"><defs><clipPath id="e123c9566d"><path d="M 80.628906 87.820312 L 294.378906 87.820312 L 294.378906 287.320312 L 80.628906 287.320312 Z M 80.628906 87.820312 " clip-rule="nonzero"/></clipPath><clipPath id="87c5d37d53"><path d="M 0.628906 0.820312 L 214.367188 0.820312 L 214.367188 200.320312 L 0.628906 200.320312 Z M 0.628906 0.820312 " clip-rule="nonzero"/></clipPath><clipPath id="cade371892"><rect x="0" width="215" y="0" height="201"/></clipPath></defs><g clip-path="url(#e123c9566d)"><g transform="matrix(1, 0, 0, 1, 80, 87)"><g clip-path="url(#cade371892)"><path fill="#ffffff" d="M 15.453125 87.609375 L 15.296875 73.511719 L 29.425781 73.367188 L 29.269531 59.289062 L 43.378906 59.121094 L 57.507812 58.964844 L 71.621094 58.808594 L 71.464844 44.730469 L 71.308594 30.636719 L 85.417969 30.484375 L 85.574219 44.574219 L 85.730469 58.648438 L 85.777344 62.871094 L 85.730469 58.648438 L 85.574219 44.570312 L 85.417969 30.480469 L 88.488281 30.441406 L 85.417969 30.480469 L 85.28125 16.390625 L 99.410156 16.234375 L 102.480469 16.203125 L 99.410156 16.234375 L 99.234375 2.148438 L 113.34375 1.992188 L 127.472656 1.835938 L 127.625 15.832031 L 130.695312 15.796875 L 130.695312 15.917969 L 141.738281 15.796875 L 141.890625 29.78125 L 144.964844 29.746094 L 144.964844 29.84375 L 156.019531 29.6875 L 156.164062 43.691406 L 159.234375 43.660156 L 159.234375 43.757812 L 170.265625 43.636719 L 170.421875 57.617188 L 173.492188 57.582031 L 173.492188 57.679688 L 184.535156 57.554688 L 184.6875 71.539062 L 187.761719 71.503906 L 187.761719 71.605469 L 198.828125 71.464844 L 198.984375 85.460938 L 202.050781 85.429688 L 202.050781 85.523438 L 213.109375 85.421875 L 213.265625 99.476562 L 213.421875 113.59375 L 199.296875 113.746094 L 199.453125 127.828125 L 185.339844 127.984375 L 185.496094 142.0625 L 171.386719 142.21875 L 171.542969 156.308594 L 157.414062 156.464844 L 157.570312 170.546875 L 143.457031 170.703125 L 143.617188 184.78125 L 129.503906 184.9375 L 129.65625 199.03125 L 115.53125 199.1875 L 101.421875 199.34375 L 101.265625 185.25 L 87.136719 185.402344 L 86.984375 171.328125 L 72.867188 171.484375 L 72.710938 157.402344 L 72.554688 143.308594 L 58.445312 143.464844 L 44.320312 143.625 L 30.207031 143.78125 L 30.046875 129.699219 L 15.925781 129.855469 L 15.765625 115.777344 L 1.65625 115.929688 L 1.5 101.835938 L 1.34375 87.757812 Z M 170.601562 71.792969 L 170.652344 76.488281 Z M 184.867188 85.710938 L 187.941406 85.710938 L 184.867188 85.742188 Z M 127.78125 30.007812 L 127.886719 39.40625 Z M 127.78125 30.007812 " fill-opacity="1" fill-rule="nonzero"/><path fill="#ffffff" d="M 185.03125 99.546875 L 184.875 85.414062 L 170.742188 85.570312 L 170.898438 99.703125 Z M 185.03125 99.546875 " fill-opacity="1" fill-rule="nonzero"/><path fill="#ffffff" d="M 170.742188 85.574219 L 170.585938 71.425781 L 156.441406 71.582031 L 156.59375 85.730469 Z M 170.742188 85.574219 " fill-opacity="1" fill-rule="nonzero"/><path fill="#ffffff" d="M 156.4375 71.582031 L 156.28125 57.449219 L 142.148438 57.601562 L 142.304688 71.738281 Z M 156.4375 71.582031 " fill-opacity="1" fill-rule="nonzero"/><path fill="#ffffff" d="M 127.855469 43.628906 L 127.703125 29.480469 L 113.554688 29.636719 L 113.710938 43.785156 Z M 127.855469 43.628906 " fill-opacity="1" fill-rule="nonzero"/><path fill="#ffffff" d="M 29.335938 87.144531 L 29.179688 72.996094 L 43.3125 72.839844 L 43.46875 86.988281 L 57.617188 86.832031 L 57.777344 100.964844 L 71.910156 100.808594 L 72.066406 114.957031 L 86.199219 114.804688 L 100.347656 114.648438 L 114.484375 114.492188 L 114.796875 142.757812 L 114.953125 156.90625 L 129.105469 156.75 L 128.945312 142.601562 L 157.21875 142.289062 L 157.375 156.4375 L 143.242188 156.59375 L 143.398438 170.726562 L 129.257812 170.886719 L 129.417969 185.019531 L 115.265625 185.175781 L 101.132812 185.332031 L 100.976562 171.199219 L 86.828125 171.355469 L 86.671875 157.222656 L 86.515625 143.074219 L 86.355469 128.9375 L 58.089844 129.25 L 43.941406 129.410156 L 29.804688 129.566406 L 29.648438 115.425781 L 15.5 115.585938 L 15.34375 101.433594 L 15.1875 87.300781 Z M 29.335938 87.144531 " fill-opacity="1" fill-rule="nonzero"/><g clip-path="url(#87c5d37d53)"><path fill="#3d3b52" d="M 14.972656 87.214844 L 14.816406 73.042969 L 29 72.890625 L 28.84375 58.726562 L 43.238281 58.570312 L 57.417969 58.414062 L 71.34375 58.257812 L 71.1875 44.335938 L 71.035156 29.921875 L 85.199219 29.765625 L 85.042969 15.609375 L 99.214844 15.441406 L 99.046875 1.28125 L 113.457031 1.117188 L 127.871094 0.957031 L 128.007812 15.132812 L 142.191406 14.96875 L 142.347656 29.125 L 156.496094 28.976562 L 156.652344 43.152344 L 170.84375 42.980469 L 171 57.136719 L 185.164062 56.980469 L 185.320312 71.140625 L 199.484375 70.992188 L 199.640625 85.164062 L 213.816406 85.007812 L 213.976562 99.402344 L 214.140625 113.8125 L 199.957031 113.96875 L 200.117188 128.132812 L 185.953125 128.289062 L 186.109375 142.445312 L 171.945312 142.601562 L 172.105469 156.773438 L 157.921875 156.925781 L 158.078125 171.085938 L 143.914062 171.242188 L 144.074219 185.414062 L 129.914062 185.570312 L 130.070312 199.742188 L 115.65625 199.902344 L 101.253906 200.066406 L 101.097656 185.886719 L 86.921875 186.050781 L 86.765625 171.886719 L 72.601562 172.042969 L 72.441406 157.648438 L 72.289062 143.714844 L 58.363281 143.871094 L 44.1875 144.027344 L 29.789062 144.183594 L 29.628906 130.027344 L 15.453125 130.183594 L 15.296875 116.023438 L 1.132812 116.179688 L 0.972656 101.769531 L 0.8125 87.375 Z M 15.609375 101.605469 L 15.765625 115.539062 L 29.945312 115.382812 L 30.101562 129.542969 L 44.027344 129.390625 L 58.21875 129.226562 L 72.378906 129.070312 L 86.765625 128.914062 L 86.921875 143.308594 L 87.082031 157.480469 L 87.234375 171.402344 L 101.421875 171.246094 L 101.570312 185.414062 L 115.496094 185.261719 L 129.433594 185.09375 L 129.277344 170.9375 L 143.441406 170.78125 L 143.28125 156.621094 L 157.445312 156.453125 L 157.289062 142.28125 L 171.464844 142.121094 L 171.308594 127.964844 L 185.457031 127.824219 L 185.300781 113.664062 L 199.464844 113.507812 L 199.3125 99.570312 L 199.15625 85.648438 L 184.984375 85.804688 L 184.824219 71.632812 L 170.664062 71.789062 L 170.507812 57.632812 L 156.328125 57.789062 L 156.171875 43.628906 L 142.011719 43.785156 L 141.855469 29.613281 L 127.691406 29.769531 L 127.535156 15.613281 L 113.59375 15.765625 L 99.671875 15.921875 L 99.828125 30.078125 L 85.648438 30.238281 L 85.800781 44.171875 L 85.957031 58.328125 L 86.121094 72.722656 L 71.71875 72.886719 L 57.558594 73.042969 L 43.378906 73.199219 L 29.453125 73.351562 L 29.613281 87.527344 L 15.433594 87.683594 Z M 15.609375 101.605469 " fill-opacity="1" fill-rule="nonzero"/><path fill="#3d3b52" d="M 14.972656 87.214844 L 14.859375 87.214844 L 14.699219 72.925781 L 28.875 72.765625 L 28.71875 58.609375 L 43.238281 58.449219 L 57.414062 58.292969 L 71.222656 58.140625 L 71.070312 44.335938 L 70.90625 29.804688 L 85.070312 29.648438 L 84.914062 15.488281 L 99.089844 15.332031 L 98.933594 1.160156 L 113.453125 1 L 127.984375 0.839844 L 128.148438 15.011719 L 142.308594 14.855469 L 142.464844 29.011719 L 156.628906 28.855469 L 156.785156 43.03125 L 170.960938 42.875 L 171.121094 57.03125 L 185.28125 56.875 L 185.457031 71.035156 L 199.621094 70.878906 L 199.777344 85.050781 L 213.945312 84.894531 L 214.105469 99.40625 L 214.265625 113.933594 L 200.089844 114.09375 L 200.246094 128.25 L 186.085938 128.40625 L 186.242188 142.5625 L 172.078125 142.722656 L 172.234375 156.898438 L 158.058594 157.054688 L 158.214844 171.210938 L 144.050781 171.371094 L 144.207031 185.527344 L 130.046875 185.683594 L 130.203125 199.855469 L 115.671875 200.015625 L 101.152344 200.179688 L 100.996094 186.007812 L 86.816406 186.164062 L 86.65625 172.003906 L 72.492188 172.160156 L 72.335938 157.648438 L 72.179688 143.828125 L 58.375 143.984375 L 44.195312 144.140625 L 29.679688 144.300781 L 29.523438 130.140625 L 15.34375 130.296875 L 15.1875 116.136719 L 1.023438 116.292969 L 0.863281 101.765625 L 0.703125 87.253906 L 14.984375 87.097656 L 14.984375 87.332031 L 0.941406 87.484375 L 1.097656 101.765625 L 1.253906 116.058594 L 15.414062 115.902344 L 15.574219 130.058594 L 29.730469 129.902344 L 29.886719 144.058594 L 44.167969 143.902344 L 58.34375 143.746094 L 72.390625 143.589844 L 72.542969 157.644531 L 72.703125 171.921875 L 86.863281 171.761719 L 87.023438 185.921875 L 101.199219 185.765625 L 101.355469 199.9375 L 115.664062 199.78125 L 129.960938 199.625 L 129.804688 185.445312 L 143.964844 185.289062 L 143.808594 171.132812 L 157.972656 170.976562 L 157.816406 156.816406 L 171.992188 156.660156 L 171.835938 142.488281 L 186 142.332031 L 185.84375 128.175781 L 200.003906 128.015625 L 199.847656 113.859375 L 214.015625 113.722656 L 213.859375 99.429688 L 213.703125 85.148438 L 199.523438 85.304688 L 199.367188 71.132812 L 185.207031 71.289062 L 185.042969 57.132812 L 170.882812 57.289062 L 170.738281 43.113281 L 156.5625 43.269531 L 156.40625 29.097656 L 142.242188 29.253906 L 142.085938 15.097656 L 127.925781 15.253906 L 127.765625 1.082031 L 113.472656 1.238281 L 99.191406 1.394531 L 99.347656 15.570312 L 85.171875 15.726562 L 85.328125 29.886719 L 71.164062 30.042969 L 71.320312 44.332031 L 71.476562 58.371094 L 57.433594 58.527344 L 43.257812 58.683594 L 28.976562 58.84375 L 29.132812 73 L 14.957031 73.15625 L 15.113281 87.328125 L 14.992188 87.328125 Z M 15.609375 101.605469 L 15.730469 101.605469 L 15.882812 115.425781 L 30.058594 115.269531 L 30.207031 129.421875 L 44.011719 129.265625 L 58.21875 129.109375 L 72.378906 128.953125 L 86.898438 128.796875 L 87.054688 143.308594 L 87.179688 157.480469 L 87.332031 171.285156 L 101.507812 171.128906 L 101.664062 185.285156 L 115.46875 185.132812 L 129.292969 184.980469 L 129.132812 170.824219 L 143.296875 170.667969 L 143.140625 156.503906 L 157.304688 156.347656 L 157.148438 142.175781 L 171.324219 142.019531 L 171.167969 127.859375 L 185.328125 127.703125 L 185.171875 113.546875 L 199.335938 113.390625 L 199.226562 99.574219 L 199.074219 85.765625 L 184.910156 85.929688 L 184.753906 71.75 L 170.585938 71.914062 L 170.429688 57.75 L 156.253906 57.90625 L 156.097656 43.75 L 141.933594 43.90625 L 141.777344 29.734375 L 127.617188 29.890625 L 127.457031 15.730469 L 113.636719 15.882812 L 99.832031 16.035156 L 99.988281 30.195312 L 85.8125 30.355469 L 85.964844 44.171875 L 86.121094 58.328125 L 86.28125 72.84375 L 71.761719 73.003906 L 57.601562 73.160156 L 43.421875 73.316406 L 29.617188 73.46875 L 29.730469 87.640625 L 15.554688 87.796875 L 15.707031 101.601562 L 15.46875 101.601562 L 15.3125 87.5625 L 29.488281 87.40625 L 29.332031 73.234375 L 43.375 73.074219 L 57.550781 72.917969 L 71.714844 72.761719 L 86 72.601562 L 85.839844 58.324219 L 85.683594 44.167969 L 85.527344 30.113281 L 99.707031 29.957031 L 99.550781 15.796875 L 113.589844 15.640625 L 127.675781 15.488281 L 127.832031 29.652344 L 141.996094 29.496094 L 142.152344 43.667969 L 156.316406 43.511719 L 156.472656 57.667969 L 170.648438 57.511719 L 170.804688 71.671875 L 184.984375 71.515625 L 185.125 85.710938 L 199.289062 85.554688 L 199.445312 99.59375 L 199.601562 113.644531 L 185.4375 113.800781 L 185.59375 127.960938 L 171.433594 128.121094 L 171.589844 142.28125 L 157.414062 142.4375 L 157.570312 156.609375 L 143.40625 156.765625 L 143.5625 170.921875 L 129.402344 171.078125 L 129.558594 185.238281 L 115.496094 185.394531 L 101.449219 185.550781 L 101.292969 171.394531 L 87.117188 171.542969 L 86.964844 157.503906 L 86.808594 143.332031 L 86.648438 129.058594 L 72.367188 129.214844 L 58.203125 129.371094 L 44.027344 129.527344 L 29.980469 129.683594 L 29.824219 115.527344 L 15.648438 115.683594 L 15.492188 101.628906 Z M 15.609375 101.605469 " fill-opacity="1" fill-rule="nonzero"/></g></g></g></g></svg>